<svg width="720" height="900" viewBox="0 0 720 900" fill="none" xmlns="http://www.w3.org/2000/svg">
  <defs>
    <linearGradient id="grassBase" x1="360" y1="0" x2="360" y2="900" gradientUnits="userSpaceOnUse">
      <stop offset="0" stop-color="#2DAD62"/>
      <stop offset="0.42" stop-color="#20834B"/>
      <stop offset="1" stop-color="#16573A"/>
    </linearGradient>
    <linearGradient id="stripeLight" x1="48" y1="86" x2="672" y2="814" gradientUnits="userSpaceOnUse">
      <stop stop-color="rgba(255,255,255,0.16)"/>
      <stop offset="1" stop-color="rgba(255,255,255,0.02)"/>
    </linearGradient>
    <linearGradient id="stripeDark" x1="120" y1="42" x2="622" y2="878" gradientUnits="userSpaceOnUse">
      <stop stop-color="rgba(8,49,34,0.02)"/>
      <stop offset="1" stop-color="rgba(8,49,34,0.20)"/>
    </linearGradient>
    <linearGradient id="dirt" x1="176" y1="274" x2="547" y2="780" gradientUnits="userSpaceOnUse">
      <stop offset="0" stop-color="#C96720"/>
      <stop offset="0.54" stop-color="#BA5613"/>
      <stop offset="1" stop-color="#8E3E11"/>
    </linearGradient>
    <radialGradient id="sunGlow" cx="0" cy="0" r="1" gradientUnits="userSpaceOnUse" gradientTransform="translate(364 112) rotate(90) scale(262 336)">
      <stop stop-color="rgba(255,255,255,0.32)"/>
      <stop offset="1" stop-color="rgba(255,255,255,0)"/>
    </radialGradient>
    <radialGradient id="moundGlow" cx="0" cy="0" r="1" gradientUnits="userSpaceOnUse" gradientTransform="translate(360 518) rotate(90) scale(76)">
      <stop stop-color="#E7A45A"/>
      <stop offset="1" stop-color="#A34E18"/>
    </radialGradient>
    <radialGradient id="homeDirt" cx="0" cy="0" r="1" gradientUnits="userSpaceOnUse" gradientTransform="translate(360 788) rotate(90) scale(102 178)">
      <stop stop-color="#D0792B"/>
      <stop offset="1" stop-color="#974313"/>
    </radialGradient>
    <filter id="blurSoft" x="-20%" y="-20%" width="140%" height="140%">
      <feGaussianBlur stdDeviation="28"/>
    </filter>
  </defs>

  <rect width="720" height="900" rx="34" fill="url(#grassBase)"/>

  <path d="M-98 168L142 -94L774 534L534 796L-98 168Z" fill="url(#stripeLight)" opacity="0.26"/>
  <path d="M-146 254L94 -8L726 620L486 882L-146 254Z" fill="url(#stripeDark)" opacity="0.3"/>
  <path d="M-64 344L176 82L808 710L568 972L-64 344Z" fill="url(#stripeLight)" opacity="0.18"/>
  <path d="M-164 444L76 182L708 810L468 1072L-164 444Z" fill="url(#stripeDark)" opacity="0.18"/>

  <ellipse cx="360" cy="134" rx="276" ry="124" fill="url(#sunGlow)"/>
  <ellipse cx="360" cy="844" rx="258" ry="110" fill="#0E2B25" opacity="0.42" filter="url(#blurSoft)"/>

  <path d="M360 250L608 498L360 746L112 498L360 250Z" fill="url(#dirt)"/>
  <path d="M360 346L514 500L360 654L206 500L360 346Z" fill="#175E3C" fill-opacity="0.5"/>

  <path d="M360 748C446 748 526 770 588 812H132C194 770 274 748 360 748Z" fill="url(#homeDirt)"/>
  <circle cx="360" cy="518" r="44" fill="url(#moundGlow)"/>
  <circle cx="360" cy="518" r="16" fill="#F7F1E4" fill-opacity="0.82"/>

  <path d="M360 758L176 574" stroke="rgba(255,255,255,0.74)" stroke-width="5" stroke-linecap="round"/>
  <path d="M360 758L544 574" stroke="rgba(255,255,255,0.74)" stroke-width="5" stroke-linecap="round"/>
  <path d="M360 758L360 250" stroke="rgba(255,255,255,0.32)" stroke-width="3" stroke-linecap="round"/>

  <path d="M360 758L112 498" stroke="rgba(255,255,255,0.42)" stroke-width="4" stroke-linecap="round"/>
  <path d="M360 758L608 498" stroke="rgba(255,255,255,0.42)" stroke-width="4" stroke-linecap="round"/>

  <rect x="350" y="240" width="20" height="20" rx="2" transform="rotate(45 350 240)" fill="#FFFDF7" fill-opacity="0.96" stroke="rgba(255,255,255,0.74)" stroke-width="2"/>
  <rect x="166" y="488" width="20" height="20" rx="2" transform="rotate(45 166 488)" fill="#FFFDF7" fill-opacity="0.96" stroke="rgba(255,255,255,0.74)" stroke-width="2"/>
  <rect x="534" y="488" width="20" height="20" rx="2" transform="rotate(45 534 488)" fill="#FFFDF7" fill-opacity="0.96" stroke="rgba(255,255,255,0.74)" stroke-width="2"/>
  <path d="M360 760L372 772L360 784L348 772L360 760Z" fill="#FFFDF7" fill-opacity="0.96" stroke="rgba(255,255,255,0.74)" stroke-width="2"/>

  <path d="M92 120C154 76 246 48 360 48C474 48 566 76 628 120" stroke="rgba(255,255,255,0.12)" stroke-width="18" stroke-linecap="round"/>
  <path d="M114 148C174 110 258 88 360 88C462 88 546 110 606 148" stroke="rgba(7,48,33,0.22)" stroke-width="42" stroke-linecap="round"/>

  <rect width="720" height="900" rx="34" fill="url(#sunGlow)" opacity="0.12"/>
</svg>
